<svg xmlns="http://www.w3.org/2000/svg" width="48" height="48" viewBox="0 0 48 48" fill="none">
  <rect width="48" height="48" fill="white"/>
  <path d="M23.5162 5L9.2832 27.79C13.5041 25.0093 18.4477 23.5272 23.5022 23.5272C28.5567 23.5272 33.5003 25.0093 37.7212 27.79L23.5162 5Z" fill="#00559C"/>
  <path d="M38.549 29.086H8.492L5 34.625C17.2509 32.5757 29.7571 32.5757 42.008 34.625L38.549 29.086Z" fill="#F0532D"/>
  <path d="M13.9721 35.357H16.6981C16.9823 35.3602 17.2536 35.4756 17.453 35.6781C17.6523 35.8807 17.7635 36.1538 17.7621 36.438V38.238C17.7624 38.439 17.7051 38.6358 17.597 38.8052C17.4889 38.9746 17.3345 39.1096 17.1521 39.194L18.8221 42.025H17.1521L15.0381 38.387H16.2471V36.438H14.4271V42.029H12.9121V36.438C12.9108 36.1545 13.0214 35.8819 13.2198 35.6795C13.4183 35.4771 13.6887 35.3612 13.9721 35.357Z" fill="#00559C"/>
  <path d="M25.6331 36.871H24.1191V42.029H25.6331V36.871Z" fill="#00559C"/>
  <path d="M25.6321 35.357H24.1191V36.438H25.6321V35.357Z" fill="#00559C"/>
  <path d="M27.7444 35.357H26.2324V41.116C26.2345 41.3583 26.3319 41.59 26.5035 41.761C26.6751 41.9321 26.9071 42.0287 27.1494 42.03H28.6584V41.116H27.7444V37.784H28.6564V36.871H27.7444V35.357Z" fill="#00559C"/>
  <path d="M22.606 36.871H18.972V37.784H21.998V38.384H19.581C19.3385 38.3845 19.1061 38.4811 18.9346 38.6526C18.7631 38.8241 18.6665 39.0565 18.666 39.299V40.818L19.429 42.026H23.511V37.784C23.5075 37.5443 23.4112 37.3154 23.2425 37.1451C23.0737 36.9749 22.8456 36.8767 22.606 36.871ZM21.998 41.116H20.18V39.302H21.999L21.998 41.116Z" fill="#00559C"/>
  <path d="M33.1836 36.871H30.1656C29.928 36.8813 29.7031 36.9811 29.5361 37.1505C29.3691 37.3199 29.2725 37.5463 29.2656 37.784V41.116C29.2686 41.3549 29.3641 41.5833 29.5319 41.7533C29.6997 41.9234 29.9268 42.0218 30.1656 42.028H33.1836C33.4252 42.0232 33.6556 41.9256 33.8271 41.7554C33.9986 41.5852 34.098 41.3555 34.1046 41.114V37.784C34.1 37.5419 34.0012 37.3112 33.8292 37.1408C33.6573 36.9703 33.4257 36.8736 33.1836 36.871ZM32.5946 41.116H30.7646V37.784H32.5956L32.5946 41.116Z" fill="#00559C"/>
</svg>