<svg xmlns="http://www.w3.org/2000/svg" width="254" height="50" viewBox="0 0 254 50" fill="none">
  <rect width="254" height="50" fill="white"/>
  <path d="M69.8889 14.684H54.3809V17.665H69.8889V14.684Z" fill="#00559C"/>
  <path d="M71.5731 20.122H52.4551V23.08H68.1671C67.1851 30.399 60.3301 31.147 55.3161 31.147L57.0371 34.088C68.9921 34.088 71.7371 25.274 71.5741 20.123" fill="#00559C"/>
  <path d="M86.2943 21.068V34.668H82.8483V23.607C80.3875 25.147 77.7596 26.4024 75.0153 27.349L72.9863 24.428C79.8733 22.336 86.1373 18.334 89.2353 13.509L92.0133 15.432C90.4143 17.5984 88.484 19.4993 86.2933 21.065" fill="#00559C"/>
  <path d="M94.1367 13.587V34.67H97.2767V23.178C101.502 24.6238 105.399 26.8913 108.744 29.85L110.163 27.072C106.171 24.0867 101.851 21.5665 97.2877 19.56V13.587H94.1367Z" fill="#00559C"/>
  <path d="M131.938 14.852H112.663V17.665H120.904V31.134H111.885V34.127H132.563V31.146H123.945V17.681H131.935L131.938 14.852Z" fill="#00559C"/>
  <path d="M149.534 17.381H148.513V13.707H145.841L145.854 17.339H144.579V13.707H141.922V17.339H140.997C140.634 16.098 139.998 14.9543 139.134 13.992L136.739 15.099C137.246 15.7688 137.636 16.5193 137.893 17.319H134.397V19.873H140.171L140.629 21.273H135.497V23.573H143.797V24.24H136.003V26.393H143.797V27.185H134.711V29.511H141.539C140.039 31.064 134.766 32.635 134.322 32.635L135.827 35.217C138.202 34.35 141.654 33.126 143.797 30.907V35.54H146.397V30.933C148.832 33.282 150.697 33.943 154.338 35.255L155.824 32.663C153.178 32.1656 150.672 31.0975 148.481 29.533H155.567V27.193H146.382V26.387H154.434V24.255H146.382V23.587H154.939V21.276H150.397L150.797 19.907H155.846V17.339H152.655C152.947 16.5607 153.334 15.8217 153.807 15.139L151.388 14.062C150.524 15.0108 149.89 16.1463 149.536 17.38" fill="#00559C"/>
  <path d="M147.561 19.877H143.473L143.903 21.277H147.142L147.561 19.877Z" fill="white"/>
  <path d="M162.928 13.587H160.265V17.939H157.285V20.721H160.125C159.369 23.1332 158.212 25.4008 156.703 27.429L157.944 30.536C158.899 29.4036 159.679 28.1345 160.257 26.771L160.265 35.534H162.928V25.482C163.411 26.2017 163.956 26.8782 164.556 27.504L165.944 24.622H169.213C168.673 27.074 165.459 30.773 163.791 31.876L165.591 34.238C167.458 32.5408 169.041 30.5549 170.279 28.356V35.499H173.085V28.576C174.263 30.7262 175.822 32.6447 177.685 34.238L179.467 31.876C176.973 30.051 175.08 27.5236 174.03 24.617H178.772V22.017H173.085V19.847H178.234V17.047H173.085V13.706H170.285V17.039H168.839C169.039 16.076 169.196 14.811 169.196 14.811L166.884 14.253C166.739 16.1202 166.068 17.908 164.948 19.409V17.939H162.93L162.928 13.587Z" fill="#00559C"/>
  <path d="M164.954 20.173V20.722H162.936C163.861 22.053 164.046 22.45 165.28 23.985V22.016H166.854C166.826 21.983 165.023 20.189 164.954 20.173Z" fill="white"/>
  <path d="M170.277 19.845H168.025C167.696 20.5999 167.304 21.3258 166.854 22.015H170.277V19.845Z" fill="white"/>
  <path d="M197.987 17.509H194.987C194.906 16.3049 194.917 15.0965 195.018 13.894H192.109C192.044 14.589 192.229 17.436 192.245 17.509H180.352V20.272H192.379C193.261 41.881 200.951 35.172 201.665 30.972L199.489 27.937C198.717 33.9 196.189 33.869 195.122 20.275H200.359V18.364L201.348 17.974C200.86 16.6353 200.126 15.3995 199.185 14.33L196.678 15.464C197.222 16.0704 197.664 16.761 197.987 17.509Z" fill="#00559C"/>
  <path d="M191.392 22.836H180.945V25.573H184.857V30.947C183.369 31.1982 181.866 31.3458 180.357 31.389V34.389C184.343 34.157 188.295 33.5139 192.148 32.47V29.58C190.728 30.0018 189.282 30.3338 187.819 30.574V25.573H191.392V22.836Z" fill="#00559C"/>
  <path d="M202.5 19.56L203.807 22.26C205.249 21.743 207.085 20.826 207.085 20.826V22.436H219.829V20.951C220.798 21.4543 221.8 21.8909 222.829 22.258L224.129 19.525C220.445 18.6231 217.108 16.6551 214.537 13.867H212.115C209.507 16.6259 206.178 18.5983 202.505 19.56" fill="#00559C"/>
  <path d="M217.929 19.978C216.26 19.0173 214.713 17.86 213.319 16.531C212.787 17.451 208.841 19.906 208.695 19.978H217.929Z" fill="white"/>
  <path d="M223.354 24.208H203.494V26.994H209.688L207.053 31.879C205.575 31.879 205.477 31.879 204.043 31.887L204.281 34.57C209.482 34.5527 214.675 34.1517 219.817 33.37C220.395 34.142 220.564 34.363 221.203 35.219L223.603 33.444C221.725 31.2292 219.657 29.1819 217.424 27.325L215.242 28.887C216.143 29.4963 216.957 30.2241 217.663 31.051C215.257 31.5107 212.813 31.745 210.363 31.751L212.733 26.987H223.353L223.354 24.208Z" fill="#00559C"/>
  <path d="M234.961 20.157V17.624H232.095V13.868H229.195V17.611H225.934V20.157H231.821C228.944 24.649 227.962 25.457 225.275 27.557L226.407 30.582C227.419 29.8333 228.352 28.9832 229.19 28.045V35.573H231.861V26.753C232.717 27.6656 233.636 28.517 234.61 29.301L236.23 26.984C234.888 26.0896 233.682 25.0064 232.649 23.768C233.498 22.6147 234.272 21.4086 234.967 20.157" fill="#00559C"/>
  <path d="M242.255 14.367H239.355V19.255H235.475V22.016H239.35V31.971H233.955V34.671H246.869V31.96H242.264V22.023H246.594V19.24H242.264L242.255 14.367Z" fill="#00559C"/>
  <path d="M26.5162 6L12.2832 28.79C16.5041 26.0093 21.4477 24.5272 26.5022 24.5272C31.5567 24.5272 36.5003 26.0093 40.7212 28.79L26.5162 6Z" fill="#00559C"/>
  <path d="M41.549 30.086H11.492L8 35.625C20.2509 33.5757 32.7571 33.5757 45.008 35.625L41.549 30.086Z" fill="#F0532D"/>
  <path d="M16.9721 36.357H19.6981C19.9823 36.3602 20.2536 36.4756 20.453 36.6781C20.6523 36.8807 20.7635 37.1538 20.7621 37.438V39.238C20.7624 39.439 20.7051 39.6358 20.597 39.8052C20.4889 39.9746 20.3345 40.1096 20.1521 40.194L21.8221 43.025H20.1521L18.0381 39.387H19.2471V37.438H17.4271V43.029H15.9121V37.438C15.9108 37.1545 16.0214 36.8819 16.2198 36.6795C16.4183 36.4771 16.6887 36.3612 16.9721 36.357Z" fill="#00559C"/>
  <path d="M28.6331 37.871H27.1191V43.029H28.6331V37.871Z" fill="#00559C"/>
  <path d="M28.6321 36.357H27.1191V37.438H28.6321V36.357Z" fill="#00559C"/>
  <path d="M30.7444 36.357H29.2324V42.116C29.2345 42.3583 29.3319 42.59 29.5035 42.761C29.6751 42.9321 29.9071 43.0287 30.1494 43.03H31.6584V42.116H30.7444V38.784H31.6564V37.871H30.7444V36.357Z" fill="#00559C"/>
  <path d="M25.606 37.871H21.972V38.784H24.998V39.384H22.581C22.3385 39.3845 22.1061 39.4811 21.9346 39.6525C21.7631 39.824 21.6665 40.0565 21.666 40.299V41.818L22.429 43.026H26.511V38.784C26.5075 38.5443 26.4112 38.3153 26.2425 38.1451C26.0737 37.9749 25.8456 37.8766 25.606 37.871ZM24.998 42.116H23.18V40.302H24.999L24.998 42.116Z" fill="#00559C"/>
  <path d="M36.1836 37.871H33.1656C32.928 37.8812 32.7031 37.9811 32.5361 38.1505C32.3691 38.3199 32.2725 38.5462 32.2656 38.784V42.116C32.2686 42.3548 32.3641 42.5833 32.5319 42.7533C32.6997 42.9233 32.9268 43.0218 33.1656 43.028H36.1836C36.4252 43.0232 36.6556 42.9256 36.8271 42.7554C36.9986 42.5852 37.098 42.3555 37.1046 42.114V38.784C37.1 38.5419 37.0012 38.3112 36.8292 38.1407C36.6573 37.9703 36.4257 37.8735 36.1836 37.871ZM35.5946 42.116H33.7646V38.784H35.5956L35.5946 42.116Z" fill="#00559C"/>
</svg>